<?xml version="1.0" encoding="UTF-8" standalone="no"?>
<!-- Created with Inkscape (http://www.inkscape.org/) -->

<svg
   width="48"
   height="48"
   viewBox="0 0 12.7 12.7"
   version="1.1"
   id="svg5"
   xmlns="http://www.w3.org/2000/svg"
   xmlns:svg="http://www.w3.org/2000/svg">
  <defs
     id="defs2" />
  <g
     id="layer1">
    <path
       id="path10440"
       style="fill:#a3a3a3;fill-opacity:1;stroke:#000000;stroke-width:0.3;stroke-dasharray:none;stroke-opacity:1"
       d="M 8.3757161 1.2557373 C 8.2548437 1.2595444 8.0824395 1.3252544 7.8377645 1.5017171 C 6.9708293 2.1269615 6.9932087 7.0034225 6.9933716 7.0372965 C 6.2550135 6.9384016 5.6055172 6.9754228 5.6792399 7.4388224 C 5.8435097 8.4713753 2.5579834 10.043831 2.5579834 10.043831 C 2.5579834 10.043831 5.4443022 11.45211 7.9318156 11.49904 C 10.419329 11.545974 8.9410563 7.485848 8.9410563 7.485848 C 8.9410563 7.485848 8.5454476 7.3617913 8.0300008 7.2378011 L 8.6594198 1.6427938 C 8.6594198 1.6427938 8.6846124 1.246008 8.3757161 1.2557373 z " />
    <path
       style="fill:#a3a3a3;fill-opacity:1;stroke:#000000;stroke-width:0.3;stroke-dasharray:none;stroke-opacity:1"
       d="M 3.3557995,10.372472 C 3.9736962,10.360842 4.627596,9.9858746 5.1425205,9.6609244 5.2560978,9.5901035 5.3722231,9.5189223 5.4558521,9.4119061 5.5056101,9.3537089 5.549402,9.2903136 5.5851735,9.2225817"
       id="path11267" />
    <path
       style="fill:#a3a3a3;fill-opacity:1;stroke:#000000;stroke-width:0.3;stroke-dasharray:none;stroke-opacity:1"
       d="m 4.6637207,10.837054 c 0.6178967,-0.01163 1.2717965,-0.386597 1.786721,-0.711548 0.1135773,-0.07082 0.2297026,-0.1420018 0.3133316,-0.249018 0.049758,-0.058197 0.09355,-0.1215925 0.1293214,-0.1893244"
       id="path11267-3" />
    <path
       style="fill:#a3a3a3;fill-opacity:1;stroke:#000000;stroke-width:0.3;stroke-dasharray:none;stroke-opacity:1"
       d="m 6.165617,11.259462 c 0.6178967,-0.01163 1.2717965,-0.386597 1.786721,-0.711547 0.1135773,-0.07082 0.2297026,-0.142002 0.3133316,-0.249019 0.049758,-0.0582 0.09355,-0.121592 0.1293214,-0.189324"
       id="path11267-5" />
    <path
       style="fill:#a3a3a3;fill-opacity:1;stroke:#000000;stroke-width:0.3;stroke-dasharray:none;stroke-opacity:1"
       d="m 5.585177,7.8849556 c 0,0 2.2528444,0.5397441 3.5904708,0.4224085"
       id="path12048" />
  </g>
</svg>
